<svg width="60" height="25" viewBox="0 0 60 25" fill="none" xmlns="http://www.w3.org/2000/svg">
<g filter="url(#filter0_b_5_2)">
<path d="M5.52929 13.5008C3.20254 13.5008 1.35945 12.8094 0 11.4267L1.50977 9.31357C2.63393 10.4875 4.01952 11.0745 5.66654 11.0745C6.38548 11.0745 6.94103 10.9376 7.33318 10.6636C7.7384 10.3767 7.94101 10.031 7.94101 9.62663C7.94101 9.27444 7.75147 8.98094 7.37239 8.74614C7.00638 8.51135 6.54234 8.34177 5.98026 8.23742C5.43126 8.13307 4.82996 7.98306 4.17638 7.7874C3.5228 7.59173 2.91497 7.36998 2.35289 7.12214C1.80388 6.8743 1.33984 6.48297 0.960764 5.94816C0.594758 5.41335 0.411756 4.76114 0.411756 3.99153C0.411756 2.86973 0.862727 1.93054 1.76467 1.17398C2.66661 0.40437 3.8692 0.0195661 5.37243 0.0195661C7.45082 0.0195661 9.15013 0.626122 10.4704 1.83923L8.92138 3.87413C7.88872 2.9219 6.62077 2.44579 5.11754 2.44579C4.52931 2.44579 4.07181 2.56319 3.74502 2.79798C3.41823 3.03278 3.25483 3.35236 3.25483 3.75673C3.25483 4.06979 3.43783 4.3372 3.80384 4.55895C4.18292 4.76766 4.64696 4.92419 5.19597 5.02854C5.75805 5.1329 6.35934 5.28943 6.99985 5.49814C7.65343 5.6938 8.25472 5.92207 8.80373 6.18296C9.36581 6.4308 9.82985 6.82865 10.1959 7.3765C10.5749 7.91131 10.7645 8.557 10.7645 9.31357C10.7645 10.5658 10.3135 11.5767 9.41156 12.3463C8.52269 13.116 7.2286 13.5008 5.52929 13.5008Z" fill="white"/>
<path d="M15.4234 13.266H12.6391V0.215229H18.7566C20.1292 0.215229 21.201 0.6196 21.9723 1.42834C22.7566 2.22404 23.1487 3.22192 23.1487 4.42199C23.1487 5.60901 22.7566 6.60689 21.9723 7.41563C21.188 8.22438 20.1161 8.62875 18.7566 8.62875H15.4234V13.266ZM18.3841 6.18296C18.9462 6.18296 19.4037 6.02643 19.7566 5.71337C20.1226 5.38726 20.3056 4.9568 20.3056 4.42199C20.3056 3.88718 20.1226 3.46324 19.7566 3.15018C19.4037 2.82407 18.9462 2.66102 18.3841 2.66102H15.4234V6.18296H18.3841Z" fill="white"/>
<path d="M35.6152 13.266H32.4388L31.6349 11.055H26.0272L25.2037 13.266H22.0273L27.086 0.215229H30.5761L35.6152 13.266ZM30.8702 8.60918L28.831 2.99365L26.7919 8.60918H30.8702Z" fill="white"/>
<path d="M42.4859 13.5008C40.499 13.5008 38.8389 12.8746 37.5056 11.6224C36.1854 10.3571 35.5253 8.7331 35.5253 6.75038C35.5253 4.76766 36.1854 3.15018 37.5056 1.89793C38.8389 0.632644 40.499 0 42.4859 0C44.9303 0 46.7538 1.0631 47.9564 3.18931L45.5643 4.36329C45.2767 3.81543 44.8519 3.36541 44.2898 3.01321C43.7408 2.64797 43.1395 2.46536 42.4859 2.46536C41.2964 2.46536 40.316 2.86973 39.5448 3.67847C38.7736 4.48721 38.388 5.51118 38.388 6.75038C38.388 7.98958 38.7736 9.01355 39.5448 9.82229C40.316 10.631 41.2964 11.0354 42.4859 11.0354C43.1395 11.0354 43.7408 10.8593 44.2898 10.5071C44.8519 10.1549 45.2767 9.69837 45.5643 9.13747L47.9564 10.2919C46.7146 12.4311 44.8911 13.5008 42.4859 13.5008Z" fill="white"/>
<path d="M58.8684 13.266H49.6137V0.215229H58.8684V2.66102H52.3979V5.41987H58.7311V7.86566H52.3979V10.8202H58.8684V13.266Z" fill="white"/>
<path d="M5.28016 24.7756H0.730088V13.2602H5.28016C7.09097 13.2602 8.56152 13.7896 9.69183 14.8485C10.8337 15.9074 11.4046 17.3001 11.4046 19.0265C11.4046 20.753 10.8394 22.1456 9.70913 23.2045C8.57882 24.2519 7.1025 24.7756 5.28016 24.7756ZM5.28016 22.6175C6.38741 22.6175 7.26397 22.2722 7.90986 21.5816C8.56729 20.8911 8.896 20.0394 8.896 19.0265C8.896 17.9676 8.57882 17.1044 7.94447 16.4369C7.31011 15.7578 6.42201 15.4183 5.28016 15.4183H3.18678V22.6175H5.28016Z" fill="white"/>
<path d="M18.6151 24.9827C16.8735 24.9827 15.4317 24.4245 14.2899 23.3081C13.1596 22.1801 12.5944 20.753 12.5944 19.0265C12.5944 17.3001 13.1596 15.8786 14.2899 14.7622C15.4317 13.6343 16.8735 13.0703 18.6151 13.0703C20.3682 13.0703 21.8099 13.6285 22.9402 14.7449C24.0821 15.8614 24.653 17.2886 24.653 19.0265C24.653 20.7645 24.0821 22.1917 22.9402 23.3081C21.8099 24.4245 20.3682 24.9827 18.6151 24.9827ZM16.0719 21.737C16.7177 22.4506 17.5655 22.8074 18.6151 22.8074C19.6646 22.8074 20.5124 22.4506 21.1583 21.737C21.8041 21.0234 22.1271 20.1199 22.1271 19.0265C22.1271 17.9331 21.8041 17.0296 21.1583 16.316C20.5124 15.6024 19.6646 15.2456 18.6151 15.2456C17.5655 15.2456 16.7177 15.6024 16.0719 16.316C15.4375 17.0296 15.1203 17.9331 15.1203 19.0265C15.1203 20.1199 15.4375 21.0234 16.0719 21.737Z" fill="white"/>
<path d="M31.9651 25C30.235 25 28.776 24.4475 27.588 23.3426C26.4116 22.2377 25.8233 20.799 25.8233 19.0265C25.8233 17.2425 26.4116 15.8038 27.588 14.7104C28.776 13.617 30.235 13.0703 31.9651 13.0703C34.0642 13.0703 35.6559 13.9278 36.7401 15.6427L34.6986 16.7476C34.4218 16.3103 34.0412 15.9535 33.5567 15.6772C33.0839 15.3895 32.5533 15.2456 31.9651 15.2456C30.9155 15.2456 30.0505 15.6024 29.37 16.316C28.6895 17.0296 28.3492 17.9331 28.3492 19.0265C28.3492 20.1199 28.6895 21.0234 29.37 21.737C30.0505 22.4506 30.9155 22.8074 31.9651 22.8074C32.4495 22.8074 32.9166 22.7211 33.3664 22.5485C33.8163 22.3758 34.168 22.1686 34.4218 21.9269V20.5458H31.3769V18.405H36.8785V22.8247C35.5752 24.2749 33.9374 25 31.9651 25Z" fill="white"/>
<path d="M44.4168 25C42.6868 25 41.2277 24.4475 40.0398 23.3426C38.8633 22.2377 38.2751 20.799 38.2751 19.0265C38.2751 17.2425 38.8633 15.8038 40.0398 14.7104C41.2277 13.617 42.6868 13.0703 44.4168 13.0703C46.516 13.0703 48.1076 13.9278 49.1918 15.6427L47.1503 16.7476C46.8735 16.3103 46.4929 15.9535 46.0085 15.6772C45.5356 15.3895 45.0051 15.2456 44.4168 15.2456C43.3673 15.2456 42.5022 15.6024 41.8217 16.316C41.1412 17.0296 40.801 17.9331 40.801 19.0265C40.801 20.1199 41.1412 21.0234 41.8217 21.737C42.5022 22.4506 43.3673 22.8074 44.4168 22.8074C44.9012 22.8074 45.3684 22.7211 45.8182 22.5485C46.268 22.3758 46.6198 22.1686 46.8735 21.9269V20.5458H43.8286V18.405H49.3302V22.8247C48.0269 24.2749 46.3891 25 44.4168 25Z" fill="white"/>
<path d="M55.3807 24.9827C53.3277 24.9827 51.7014 24.3727 50.5019 23.1527L51.8341 21.2882C52.826 22.324 54.0486 22.842 55.5018 22.842C56.1362 22.842 56.6264 22.7211 56.9724 22.4794C57.3299 22.2262 57.5087 21.9212 57.5087 21.5644C57.5087 21.2536 57.3415 20.9947 57.007 20.7875C56.684 20.5803 56.2746 20.4307 55.7786 20.3386C55.2942 20.2465 54.7637 20.1142 54.187 19.9415C53.6103 19.7689 53.074 19.5732 52.578 19.3545C52.0936 19.1359 51.6841 18.7906 51.3497 18.3187C51.0267 17.8468 50.8652 17.2713 50.8652 16.5922C50.8652 15.6024 51.2632 14.7737 52.059 14.1062C52.8548 13.4271 53.9159 13.0876 55.2423 13.0876C57.0762 13.0876 58.5756 13.6228 59.7405 14.6932L58.3737 16.4887C57.4626 15.6485 56.3438 15.2283 55.0174 15.2283C54.4984 15.2283 54.0947 15.3319 53.8064 15.5391C53.518 15.7463 53.3738 16.0283 53.3738 16.3851C53.3738 16.6613 53.5353 16.8972 53.8583 17.0929C54.1927 17.2771 54.6022 17.4152 55.0866 17.5073C55.5826 17.5993 56.1131 17.7374 56.6783 17.9216C57.255 18.0942 57.7855 18.2957 58.2699 18.5259C58.7659 18.7445 59.1753 19.0956 59.4983 19.579C59.8328 20.0509 60 20.6206 60 21.2882C60 22.3931 59.6021 23.2851 58.8063 23.9641C58.022 24.6432 56.8801 24.9827 55.3807 24.9827Z" fill="white"/>
</g>
<defs>
<filter id="filter0_b_5_2" x="-4" y="-4" width="68" height="33" filterUnits="userSpaceOnUse" color-interpolation-filters="sRGB">
<feFlood flood-opacity="0" result="BackgroundImageFix"/>
<feGaussianBlur in="BackgroundImageFix" stdDeviation="2"/>
<feComposite in2="SourceAlpha" operator="in" result="effect1_backgroundBlur_5_2"/>
<feBlend mode="normal" in="SourceGraphic" in2="effect1_backgroundBlur_5_2" result="shape"/>
</filter>
</defs>
</svg>
