<svg width="226" height="46" viewBox="0 0 226 46" fill="none" xmlns="http://www.w3.org/2000/svg">
<g filter="url(#filter0_b_0_31)">
<mask id="path-1-outside-1_0_31" maskUnits="userSpaceOnUse" x="-9" y="-8" width="241" height="60" fill="black">
<rect fill="white" x="-9" y="-8" width="241" height="60"/>
<path d="M46.408 45H35.716L33.01 37.542H14.134L11.362 45H0.67L17.698 0.977996H29.446L46.408 45ZM30.436 29.292L23.572 10.35L16.708 29.292H30.436ZM74.3652 45H50.4732V0.977996H73.6392C77.6432 0.977996 80.7452 2.078 82.9452 4.278C85.1892 6.434 86.3112 9.074 86.3112 12.198C86.3112 14.882 85.5852 17.126 84.1332 18.93C82.6812 20.734 80.8772 21.856 78.7212 22.296C81.0972 22.648 83.0992 23.858 84.7272 25.926C86.3552 27.994 87.1692 30.392 87.1692 33.12C87.1692 36.552 86.0472 39.39 83.8032 41.634C81.5592 43.878 78.4132 45 74.3652 45ZM71.5932 18.6C73.1772 18.6 74.4312 18.16 75.3552 17.28C76.2792 16.4 76.7412 15.256 76.7412 13.848C76.7412 12.44 76.2572 11.296 75.2892 10.416C74.3652 9.492 73.1332 9.03 71.5932 9.03H59.8452V18.6H71.5932ZM71.9232 36.882C73.6832 36.882 75.0692 36.442 76.0812 35.562C77.0932 34.638 77.5992 33.384 77.5992 31.8C77.5992 30.348 77.0932 29.138 76.0812 28.17C75.0692 27.158 73.6832 26.652 71.9232 26.652H59.8452V36.882H71.9232ZM115.093 45.792C108.449 45.792 102.949 43.658 98.5929 39.39C94.2809 35.078 92.1249 29.622 92.1249 23.022C92.1249 16.422 94.2809 10.988 98.5929 6.72C102.949 2.408 108.449 0.251998 115.093 0.251998C121.781 0.251998 127.281 2.386 131.593 6.654C135.949 10.922 138.127 16.378 138.127 23.022C138.127 29.666 135.949 35.122 131.593 39.39C127.281 43.658 121.781 45.792 115.093 45.792ZM105.391 33.384C107.855 36.112 111.089 37.476 115.093 37.476C119.097 37.476 122.331 36.112 124.795 33.384C127.259 30.656 128.491 27.202 128.491 23.022C128.491 18.842 127.259 15.388 124.795 12.66C122.331 9.932 119.097 8.568 115.093 8.568C111.089 8.568 107.855 9.932 105.391 12.66C102.971 15.388 101.761 18.842 101.761 23.022C101.761 27.202 102.971 30.656 105.391 33.384ZM179.354 40.842C176.01 44.142 171.082 45.792 164.57 45.792C158.058 45.792 153.108 44.142 149.72 40.842C146.376 37.498 144.704 33.032 144.704 27.444V0.977996H154.208V27.114C154.208 30.282 155.11 32.812 156.914 34.704C158.718 36.552 161.27 37.476 164.57 37.476C167.87 37.476 170.4 36.552 172.16 34.704C173.964 32.812 174.866 30.282 174.866 27.114V0.977996H184.436V27.378C184.436 33.054 182.742 37.542 179.354 40.842ZM212.71 45H203.272V9.228H190.402V0.977996H225.514V9.228H212.71V45Z"/>
</mask>
<path d="M46.408 45H35.716L33.01 37.542H14.134L11.362 45H0.67L17.698 0.977996H29.446L46.408 45ZM30.436 29.292L23.572 10.35L16.708 29.292H30.436ZM74.3652 45H50.4732V0.977996H73.6392C77.6432 0.977996 80.7452 2.078 82.9452 4.278C85.1892 6.434 86.3112 9.074 86.3112 12.198C86.3112 14.882 85.5852 17.126 84.1332 18.93C82.6812 20.734 80.8772 21.856 78.7212 22.296C81.0972 22.648 83.0992 23.858 84.7272 25.926C86.3552 27.994 87.1692 30.392 87.1692 33.12C87.1692 36.552 86.0472 39.39 83.8032 41.634C81.5592 43.878 78.4132 45 74.3652 45ZM71.5932 18.6C73.1772 18.6 74.4312 18.16 75.3552 17.28C76.2792 16.4 76.7412 15.256 76.7412 13.848C76.7412 12.44 76.2572 11.296 75.2892 10.416C74.3652 9.492 73.1332 9.03 71.5932 9.03H59.8452V18.6H71.5932ZM71.9232 36.882C73.6832 36.882 75.0692 36.442 76.0812 35.562C77.0932 34.638 77.5992 33.384 77.5992 31.8C77.5992 30.348 77.0932 29.138 76.0812 28.17C75.0692 27.158 73.6832 26.652 71.9232 26.652H59.8452V36.882H71.9232ZM115.093 45.792C108.449 45.792 102.949 43.658 98.5929 39.39C94.2809 35.078 92.1249 29.622 92.1249 23.022C92.1249 16.422 94.2809 10.988 98.5929 6.72C102.949 2.408 108.449 0.251998 115.093 0.251998C121.781 0.251998 127.281 2.386 131.593 6.654C135.949 10.922 138.127 16.378 138.127 23.022C138.127 29.666 135.949 35.122 131.593 39.39C127.281 43.658 121.781 45.792 115.093 45.792ZM105.391 33.384C107.855 36.112 111.089 37.476 115.093 37.476C119.097 37.476 122.331 36.112 124.795 33.384C127.259 30.656 128.491 27.202 128.491 23.022C128.491 18.842 127.259 15.388 124.795 12.66C122.331 9.932 119.097 8.568 115.093 8.568C111.089 8.568 107.855 9.932 105.391 12.66C102.971 15.388 101.761 18.842 101.761 23.022C101.761 27.202 102.971 30.656 105.391 33.384ZM179.354 40.842C176.01 44.142 171.082 45.792 164.57 45.792C158.058 45.792 153.108 44.142 149.72 40.842C146.376 37.498 144.704 33.032 144.704 27.444V0.977996H154.208V27.114C154.208 30.282 155.11 32.812 156.914 34.704C158.718 36.552 161.27 37.476 164.57 37.476C167.87 37.476 170.4 36.552 172.16 34.704C173.964 32.812 174.866 30.282 174.866 27.114V0.977996H184.436V27.378C184.436 33.054 182.742 37.542 179.354 40.842ZM212.71 45H203.272V9.228H190.402V0.977996H225.514V9.228H212.71V45Z" fill="url(#paint0_linear_0_31)"/>
<path d="M46.408 45V51H55.1498L52.0068 42.8428L46.408 45ZM35.716 45L30.0758 47.0465L31.5103 51H35.716V45ZM33.01 37.542L38.6502 35.4955L37.2157 31.542H33.01V37.542ZM14.134 37.542V31.542H9.96305L8.50991 35.4516L14.134 37.542ZM11.362 45V51H15.533L16.9861 47.0904L11.362 45ZM0.67 45L-4.92596 42.8354L-8.08406 51H0.67V45ZM17.698 0.977996V-5.022H13.5856L12.102 -1.18656L17.698 0.977996ZM29.446 0.977996L35.0448 -1.17925L33.5641 -5.022H29.446V0.977996ZM30.436 29.292V35.292H38.992L36.0771 27.2479L30.436 29.292ZM23.572 10.35L29.2131 8.30585L23.572 -7.26128L17.9309 8.30585L23.572 10.35ZM16.708 29.292L11.0669 27.2479L8.152 35.292H16.708V29.292ZM46.408 39H35.716V51H46.408V39ZM41.3562 42.9535L38.6502 35.4955L27.3698 39.5885L30.0758 47.0465L41.3562 42.9535ZM33.01 31.542H14.134V43.542H33.01V31.542ZM8.50991 35.4516L5.73791 42.9096L16.9861 47.0904L19.7581 39.6324L8.50991 35.4516ZM11.362 39H0.67V51H11.362V39ZM6.26595 47.1646L23.294 3.14255L12.102 -1.18656L-4.92596 42.8354L6.26595 47.1646ZM17.698 6.978H29.446V-5.022H17.698V6.978ZM23.8472 3.13525L40.8092 47.1572L52.0068 42.8428L35.0448 -1.17925L23.8472 3.13525ZM36.0771 27.2479L29.2131 8.30585L17.9309 12.3941L24.7949 31.3361L36.0771 27.2479ZM17.9309 8.30585L11.0669 27.2479L22.3491 31.3361L29.2131 12.3941L17.9309 8.30585ZM16.708 35.292H30.436V23.292H16.708V35.292ZM50.4732 45H44.4732V51H50.4732V45ZM50.4732 0.977996V-5.022H44.4732V0.977996H50.4732ZM82.9452 4.278L78.7025 8.52064L78.745 8.56306L78.7882 8.60462L82.9452 4.278ZM78.7212 22.296L77.5214 16.4172L77.8419 28.2312L78.7212 22.296ZM84.7272 25.926L80.0128 29.6374V29.6374L84.7272 25.926ZM75.2892 10.416L71.0466 14.6586L71.1475 14.7596L71.2531 14.8556L75.2892 10.416ZM59.8452 9.03V3.03H53.8452V9.03H59.8452ZM59.8452 18.6H53.8452V24.6H59.8452V18.6ZM76.0812 35.562L80.0183 40.0896L80.0731 40.0419L80.1268 39.9929L76.0812 35.562ZM76.0812 28.17L71.8385 32.4126L71.8857 32.4598L71.9339 32.5058L76.0812 28.17ZM59.8452 26.652V20.652H53.8452V26.652H59.8452ZM59.8452 36.882H53.8452V42.882H59.8452V36.882ZM74.3652 39H50.4732V51H74.3652V39ZM56.4732 45V0.977996H44.4732V45H56.4732ZM50.4732 6.978H73.6392V-5.022H50.4732V6.978ZM73.6392 6.978C76.5295 6.978 77.9256 7.74371 78.7025 8.52064L87.1878 0.0353564C83.5648 -3.58772 78.7569 -5.022 73.6392 -5.022V6.978ZM78.7882 8.60462C79.8495 9.62432 80.3112 10.6997 80.3112 12.198H92.3112C92.3112 7.44828 90.5288 3.24368 87.1021 -0.0486301L78.7882 8.60462ZM80.3112 12.198C80.3112 13.7417 79.9201 14.5952 79.4591 15.1679L88.8073 22.6921C91.2503 19.6568 92.3112 16.0223 92.3112 12.198H80.3112ZM79.4591 15.1679C78.8337 15.945 78.2325 16.2721 77.5214 16.4172L79.9209 28.1748C83.5219 27.4399 86.5287 25.523 88.8073 22.6921L79.4591 15.1679ZM77.8419 28.2312C78.5514 28.3363 79.2334 28.6474 80.0128 29.6374L89.4416 22.2146C86.9649 19.0686 83.643 16.9597 79.6005 16.3608L77.8419 28.2312ZM80.0128 29.6374C80.7758 30.6066 81.1692 31.6853 81.1692 33.12H93.1692C93.1692 29.0987 91.9346 25.3814 89.4416 22.2146L80.0128 29.6374ZM81.1692 33.12C81.1692 35.1038 80.582 36.3699 79.5605 37.3914L88.0458 45.8766C91.5123 42.4101 93.1692 38.0002 93.1692 33.12H81.1692ZM79.5605 37.3914C78.7299 38.222 77.2819 39 74.3652 39V51C79.5444 51 84.3884 49.534 88.0458 45.8766L79.5605 37.3914ZM71.5932 24.6C74.3271 24.6 77.1994 23.8093 79.4931 21.6248L71.2173 12.9352C71.299 12.8574 71.3919 12.7861 71.4905 12.7263C71.5884 12.667 71.6739 12.6299 71.7352 12.6084C71.8557 12.5661 71.835 12.6 71.5932 12.6V24.6ZM79.4931 21.6248C81.7357 19.489 82.7412 16.7101 82.7412 13.848H70.7412C70.7412 13.8899 70.7361 13.7508 70.8312 13.5152C70.9315 13.2669 71.0817 13.0642 71.2173 12.9352L79.4931 21.6248ZM82.7412 13.848C82.7412 10.8943 81.6473 8.08736 79.3252 5.97636L71.2531 14.8556C71.1292 14.7429 70.9669 14.5424 70.8524 14.2718C70.7423 14.0117 70.7412 13.8403 70.7412 13.848H82.7412ZM79.5318 6.17335C77.2834 3.92494 74.4187 3.03 71.5932 3.03V15.03C71.764 15.03 71.7272 15.0551 71.5655 14.9945C71.4857 14.9646 71.3918 14.9196 71.2939 14.8567C71.1959 14.7937 71.1126 14.7247 71.0466 14.6586L79.5318 6.17335ZM71.5932 3.03H59.8452V15.03H71.5932V3.03ZM53.8452 9.03V18.6H65.8452V9.03H53.8452ZM59.8452 24.6H71.5932V12.6H59.8452V24.6ZM71.9232 42.882C74.6701 42.882 77.6111 42.1828 80.0183 40.0896L72.1441 31.0344C72.2188 30.9695 72.2934 30.9192 72.3587 30.8832C72.4229 30.8479 72.4633 30.8345 72.4672 30.8333C72.4697 30.8325 72.3122 30.882 71.9232 30.882V42.882ZM80.1268 39.9929C82.5823 37.751 83.5992 34.7812 83.5992 31.8H71.5992C71.5992 31.9524 71.5758 31.8811 71.6556 31.6833C71.6946 31.5866 71.7501 31.4808 71.8229 31.3764C71.8956 31.2721 71.9708 31.1902 72.0356 31.1311L80.1268 39.9929ZM83.5992 31.8C83.5992 28.7783 82.472 25.9801 80.2285 23.8341L71.9339 32.5058C71.884 32.4582 71.7711 32.3261 71.6842 32.1183C71.5993 31.9153 71.5992 31.7834 71.5992 31.8H83.5992ZM80.3238 23.9274C77.939 21.5425 74.8862 20.652 71.9232 20.652V32.652C72.2332 32.652 72.3048 32.6968 72.2251 32.6676C72.1845 32.6529 72.1197 32.6241 72.0429 32.5755C71.9655 32.5265 71.8958 32.4699 71.8385 32.4126L80.3238 23.9274ZM71.9232 20.652H59.8452V32.652H71.9232V20.652ZM53.8452 26.652V36.882H65.8452V26.652H53.8452ZM59.8452 42.882H71.9232V30.882H59.8452V42.882ZM98.5929 39.39L94.3502 43.6326L94.3719 43.6543L94.3937 43.6757L98.5929 39.39ZM98.5929 6.72L102.814 10.9843L102.814 10.9841L98.5929 6.72ZM131.593 6.654L127.372 10.9183L127.383 10.9291L127.394 10.9397L131.593 6.654ZM131.593 39.39L127.394 35.1043L127.383 35.1149L127.372 35.1257L131.593 39.39ZM105.391 33.384L100.902 37.3657L100.92 37.3858L100.938 37.4057L105.391 33.384ZM124.795 33.384L129.247 37.4057L124.795 33.384ZM124.795 12.66L120.342 16.6817L124.795 12.66ZM105.391 12.66L100.938 8.63828L100.92 8.65822L100.902 8.67831L105.391 12.66ZM115.093 39.792C109.865 39.792 105.921 38.17 102.792 35.1043L94.3937 43.6757C99.9768 49.146 107.033 51.792 115.093 51.792V39.792ZM102.836 35.1474C99.747 32.0588 98.1249 28.1753 98.1249 23.022H86.1249C86.1249 31.0687 88.8148 38.0972 94.3502 43.6326L102.836 35.1474ZM98.1249 23.022C98.1249 17.8686 99.7461 14.0206 102.814 10.9843L94.372 2.45566C88.8156 7.95537 86.1249 14.9754 86.1249 23.022H98.1249ZM102.814 10.9841C105.947 7.88299 109.883 6.252 115.093 6.252V-5.748C107.014 -5.748 99.951 -3.06699 94.3718 2.45587L102.814 10.9841ZM115.093 6.252C120.378 6.252 124.303 7.8811 127.372 10.9183L135.814 2.38966C130.258 -3.1091 123.184 -5.748 115.093 -5.748V6.252ZM127.394 10.9397C130.489 13.9723 132.127 17.8311 132.127 23.022H144.127C144.127 14.9249 141.409 7.87173 135.792 2.36829L127.394 10.9397ZM132.127 23.022C132.127 28.2129 130.489 32.0717 127.394 35.1043L135.792 43.6757C141.409 38.1723 144.127 31.1191 144.127 23.022H132.127ZM127.372 35.1257C124.303 38.1629 120.378 39.792 115.093 39.792V51.792C123.184 51.792 130.258 49.1531 135.814 43.6543L127.372 35.1257ZM100.938 37.4057C104.649 41.5138 109.561 43.476 115.093 43.476V31.476C112.616 31.476 111.061 30.7102 109.843 29.3623L100.938 37.4057ZM115.093 43.476C120.624 43.476 125.537 41.5138 129.247 37.4057L120.342 29.3623C119.125 30.7102 117.569 31.476 115.093 31.476V43.476ZM129.247 37.4057C132.845 33.4231 134.491 28.4696 134.491 23.022H122.491C122.491 25.9344 121.673 27.8889 120.342 29.3623L129.247 37.4057ZM134.491 23.022C134.491 17.5744 132.845 12.6209 129.247 8.63828L120.342 16.6817C121.673 18.1551 122.491 20.1096 122.491 23.022H134.491ZM129.247 8.63828C125.537 4.53018 120.624 2.568 115.093 2.568V14.568C117.569 14.568 119.125 15.3338 120.342 16.6817L129.247 8.63828ZM115.093 2.568C109.561 2.568 104.649 4.53018 100.938 8.63828L109.843 16.6817C111.061 15.3338 112.616 14.568 115.093 14.568V2.568ZM100.902 8.67831C97.3668 12.6639 95.7609 17.6034 95.7609 23.022H107.761C107.761 20.0806 108.575 18.1121 109.879 16.6417L100.902 8.67831ZM95.7609 23.022C95.7609 28.4406 97.3668 33.3801 100.902 37.3657L109.879 29.4023C108.575 27.9319 107.761 25.9634 107.761 23.022H95.7609ZM179.354 40.842L175.167 36.5439L175.153 36.5576L175.139 36.5714L179.354 40.842ZM149.72 40.842L145.477 45.0846L145.505 45.1126L145.533 45.1401L149.72 40.842ZM144.704 0.977996V-5.022H138.704V0.977996H144.704ZM154.208 0.977996H160.208V-5.022H154.208V0.977996ZM156.914 34.704L152.571 38.8445L152.596 38.87L152.62 38.8952L156.914 34.704ZM172.16 34.704L167.817 30.5635L167.815 30.5661L172.16 34.704ZM174.866 0.977996V-5.022H168.866V0.977996H174.866ZM184.436 0.977996H190.436V-5.022H184.436V0.977996ZM175.139 36.5714C173.293 38.3934 170.123 39.792 164.57 39.792V51.792C172.04 51.792 178.726 49.8906 183.568 45.1126L175.139 36.5714ZM164.57 39.792C159.022 39.792 155.807 38.3958 153.906 36.5439L145.533 45.1401C150.408 49.8882 157.093 51.792 164.57 51.792V39.792ZM153.962 36.5994C151.946 34.5828 150.704 31.7515 150.704 27.444H138.704C138.704 34.3125 140.806 40.4132 145.477 45.0846L153.962 36.5994ZM150.704 27.444V0.977996H138.704V27.444H150.704ZM144.704 6.978H154.208V-5.022H144.704V6.978ZM148.208 0.977996V27.114H160.208V0.977996H148.208ZM148.208 27.114C148.208 31.4779 149.486 35.609 152.571 38.8445L161.256 30.5635C160.733 30.015 160.208 29.0861 160.208 27.114H148.208ZM152.62 38.8952C155.846 42.1992 160.126 43.476 164.57 43.476V31.476C162.413 31.476 161.59 30.9048 161.207 30.5128L152.62 38.8952ZM164.57 43.476C169.005 43.476 173.305 42.2017 176.504 38.8419L167.815 30.5661C167.495 30.9023 166.734 31.476 164.57 31.476V43.476ZM176.502 38.8445C179.587 35.609 180.866 31.4779 180.866 27.114H168.866C168.866 29.0861 168.34 30.015 167.817 30.5635L176.502 38.8445ZM180.866 27.114V0.977996H168.866V27.114H180.866ZM174.866 6.978H184.436V-5.022H174.866V6.978ZM178.436 0.977996V27.378H190.436V0.977996H178.436ZM178.436 27.378C178.436 31.7835 177.168 34.5951 175.167 36.5439L183.54 45.1401C188.315 40.4889 190.436 34.3245 190.436 27.378H178.436ZM212.71 45V51H218.71V45H212.71ZM203.272 45H197.272V51H203.272V45ZM203.272 9.228H209.272V3.228H203.272V9.228ZM190.402 9.228H184.402V15.228H190.402V9.228ZM190.402 0.977996V-5.022H184.402V0.977996H190.402ZM225.514 0.977996H231.514V-5.022H225.514V0.977996ZM225.514 9.228V15.228H231.514V9.228H225.514ZM212.71 9.228V3.228H206.71V9.228H212.71ZM212.71 39H203.272V51H212.71V39ZM209.272 45V9.228H197.272V45H209.272ZM203.272 3.228H190.402V15.228H203.272V3.228ZM196.402 9.228V0.977996H184.402V9.228H196.402ZM190.402 6.978H225.514V-5.022H190.402V6.978ZM219.514 0.977996V9.228H231.514V0.977996H219.514ZM225.514 3.228H212.71V15.228H225.514V3.228ZM206.71 9.228V45H218.71V9.228H206.71Z" fill="#62068E" mask="url(#path-1-outside-1_0_31)"/>
</g>
<defs>
<filter id="filter0_b_0_31" x="-3.32999" y="-3.74805" width="232.844" height="53.54" filterUnits="userSpaceOnUse" color-interpolation-filters="sRGB">
<feFlood flood-opacity="0" result="BackgroundImageFix"/>
<feGaussianBlur in="BackgroundImageFix" stdDeviation="2"/>
<feComposite in2="SourceAlpha" operator="in" result="effect1_backgroundBlur_0_31"/>
<feBlend mode="normal" in="SourceGraphic" in2="effect1_backgroundBlur_0_31" result="shape"/>
</filter>
<linearGradient id="paint0_linear_0_31" x1="121.368" y1="23.1379" x2="324.974" y2="416.037" gradientUnits="userSpaceOnUse">
<stop stop-color="#ECC436"/>
<stop offset="1" stop-color="#DB00FF"/>
</linearGradient>
</defs>
</svg>
